<?xml version="1.0" standalone="no"?>
<!DOCTYPE svg PUBLIC "-//W3C//DTD SVG 20010904//EN"
 "http://www.w3.org/TR/2001/REC-SVG-20010904/DTD/svg10.dtd">
<svg version="1.0" xmlns="http://www.w3.org/2000/svg"
 width="221.000000pt" height="221.000000pt" viewBox="0 0 221.000000 221.000000"
 preserveAspectRatio="xMidYMid meet">
<metadata>
Created by potrace 1.14, written by Peter Selinger 2001-2017
</metadata>
<g transform="translate(0.000000,221.000000) scale(0.100000,-0.100000)"
fill="#000000" stroke="none">
<path d="M170 1922 c-19 -9 -52 -34 -72 -56 -35 -35 -42 -48 -39 -68 0 -5 -3
-8 -7 -8 -5 0 -10 -6 -11 -12 -7 -33 -8 -1308 -1 -1308 5 0 7 -8 6 -17 -2 -10
4 -28 12 -40 8 -13 11 -23 6 -23 -15 0 70 -75 101 -89 17 -7 46 -16 65 -19 19
-3 418 -5 885 -5 880 0 908 1 957 41 45 37 76 70 71 76 -4 3 -2 6 4 6 5 0 10
6 11 13 0 6 5 30 10 52 6 24 9 298 8 675 l-2 635 -23 40 c-25 44 -64 85 -81
85 -6 0 -8 5 -5 10 3 6 -1 11 -9 11 -29 3 -34 4 -42 12 -4 4 -413 7 -908 6
-822 0 -904 -2 -936 -17z"/>
</g>
</svg>
